<?xml version="1.0" encoding="utf-8"?>
<!-- Generator: Adobe Illustrator 22.0.1, SVG Export Plug-In . SVG Version: 6.00 Build 0)  -->
<svg version="1.1" id="Layer_1" xmlns="http://www.w3.org/2000/svg" xmlns:xlink="http://www.w3.org/1999/xlink" x="0px" y="0px"
	 viewBox="0 0 32 32" style="enable-background:new 0 0 32 32;" xml:space="preserve">
<style type="text/css">
	.st0{stroke:#000000;stroke-miterlimit:10;}
	.st1{fill:none;stroke:#FFFFFF;stroke-miterlimit:10;}
</style>
<circle class="st0" cx="16" cy="16" r="15.5"/>
<g>
	<path class="st1" d="M15.9,22.9c0,0.1,0,0.1,0.1,0.1c0.1,0,0.1,0,0.1-0.1V9.1C16.1,9,16.1,9,16,9c-0.1,0-0.1,0-0.1,0.1V22.9z"/>
</g>
<g>
	<path class="st1" d="M9,16c0,0.1,0,0.1,0.1,0.1h13.8c0.1,0,0.1,0,0.1-0.1c0-0.1,0-0.1-0.1-0.1H9.1C9,15.9,9,15.9,9,16
		C9,16,9,15.9,9,16z"/>
</g>
<circle class="st1" cx="16" cy="16" r="13.5"/>
</svg>
