<?xml version="1.0" encoding="utf-8"?>
<!-- Generator: Adobe Illustrator 22.0.1, SVG Export Plug-In . SVG Version: 6.00 Build 0)  -->
<svg version="1.1" id="Layer_1" xmlns="http://www.w3.org/2000/svg" xmlns:xlink="http://www.w3.org/1999/xlink" x="0px" y="0px"
	 viewBox="0 0 32 32" style="enable-background:new 0 0 32 32;" xml:space="preserve">
<style type="text/css">
	.st0{stroke:#000000;stroke-miterlimit:10;}
	.st1{fill:none;stroke:#FFFFFF;stroke-miterlimit:10;}
</style>
<symbol  id="Новый_символ" viewBox="-16 -16 32 32">
	<circle class="st0" cx="0" cy="0" r="15.5"/>
	<g>
		<path class="st1" d="M-0.1-6.9C-0.1-7-0.1-7,0-7s0.1,0,0.1,0.1V6.9C0.1,7,0.1,7,0,7s-0.1,0-0.1-0.1V-6.9z"/>
	</g>
	<g>
		<path class="st1" d="M-7,0c0-0.1,0-0.1,0.1-0.1H6.9C7-0.1,7-0.1,7,0s0,0.1-0.1,0.1H-6.9C-7,0.1-7,0.1-7,0C-7,0-7,0.1-7,0z"/>
	</g>
	<circle class="st1" cx="0" cy="0" r="13.5"/>
</symbol>
<use xlink:href="#Новый_символ"  width="32" height="32" x="-16" y="-16" transform="matrix(0.7071 -0.7071 -0.7071 -0.7071 16 16)" style="overflow:visible;"/>
</svg>
