<?xml version="1.0" encoding="UTF-8" standalone="no"?>
<!-- Created with Inkscape (http://www.inkscape.org/) -->

<svg
   xmlns:dc="http://purl.org/dc/elements/1.1/"
   xmlns:cc="http://creativecommons.org/ns#"
   xmlns:rdf="http://www.w3.org/1999/02/22-rdf-syntax-ns#"
   xmlns:svg="http://www.w3.org/2000/svg"
   xmlns="http://www.w3.org/2000/svg"
   xmlns:sodipodi="http://sodipodi.sourceforge.net/DTD/sodipodi-0.dtd"
   xmlns:inkscape="http://www.inkscape.org/namespaces/inkscape"
   version="1.1"
   id="svg4054"
   xml:space="preserve"
   width="42.666668"
   height="42.666668"
   viewBox="0 0 42.666668 42.666668"
   sodipodi:docname="delete_clicked_icon.svg"
   inkscape:version="0.92.3 (2405546, 2018-03-11)"><metadata
     id="metadata4060"><rdf:RDF><cc:Work
         rdf:about=""><dc:format>image/svg+xml</dc:format><dc:type
           rdf:resource="http://purl.org/dc/dcmitype/StillImage" /><dc:title></dc:title></cc:Work></rdf:RDF></metadata><defs
     id="defs4058"><clipPath
       clipPathUnits="userSpaceOnUse"
       id="clipPath4070"><path
         d="M 0,32 H 32 V 0 H 0 Z"
         id="path4068"
         inkscape:connector-curvature="0" /></clipPath></defs><sodipodi:namedview
     pagecolor="#ffffff"
     bordercolor="#666666"
     borderopacity="1"
     objecttolerance="10"
     gridtolerance="10"
     guidetolerance="10"
     inkscape:pageopacity="0"
     inkscape:pageshadow="2"
     inkscape:window-width="1280"
     inkscape:window-height="969"
     id="namedview4056"
     showgrid="false"
     inkscape:zoom="5.5312498"
     inkscape:cx="-10.847458"
     inkscape:cy="21.333334"
     inkscape:window-x="0"
     inkscape:window-y="27"
     inkscape:window-maximized="1"
     inkscape:current-layer="g4062" /><g
     id="g4062"
     inkscape:groupmode="layer"
     inkscape:label="add_clicked_icon"
     transform="matrix(1.3333333,0,0,-1.3333333,0,42.666667)"><g
       id="g136"><g
         transform="rotate(45,16,16)"
         id="g4064"><g
           clip-path="url(#clipPath4070)"
           id="g4066"><g
             transform="translate(31.5,16)"
             id="g4072"><path
               inkscape:connector-curvature="0"
               id="path4074"
               style="fill:#590606;fill-opacity:1;fill-rule:nonzero;stroke:none"
               d="m 0,0 c 0,-8.561 -6.939,-15.5 -15.5,-15.5 -8.561,0 -15.5,6.939 -15.5,15.5 0,8.561 6.939,15.5 15.5,15.5 C -6.939,15.5 0,8.561 0,0" /></g><g
             transform="translate(31.5,16)"
             id="g4076"><path
               inkscape:connector-curvature="0"
               id="path4078"
               style="fill:none;stroke:#590606;stroke-width:1;stroke-linecap:butt;stroke-linejoin:miter;stroke-miterlimit:10;stroke-dasharray:none;stroke-opacity:1"
               d="m 0,0 c 0,-8.561 -6.939,-15.5 -15.5,-15.5 -8.561,0 -15.5,6.939 -15.5,15.5 0,8.561 6.939,15.5 15.5,15.5 C -6.939,15.5 0,8.561 0,0 Z" /></g><g
             transform="translate(15.8999,9.0996)"
             id="g4080"><path
               inkscape:connector-curvature="0"
               id="path4082"
               style="fill:none;stroke:#ffffff;stroke-width:1;stroke-linecap:butt;stroke-linejoin:miter;stroke-miterlimit:10;stroke-dasharray:none;stroke-opacity:1"
               d="m 0,0 c 0,-0.055 0.045,-0.1 0.1,-0.1 0.055,0 0.1,0.045 0.1,0.1 v 13.8 c 0,0.055 -0.045,0.1 -0.1,0.1 C 0.045,13.9 0,13.855 0,13.8 Z" /></g><g
             transform="translate(9,16)"
             id="g4084"><path
               inkscape:connector-curvature="0"
               id="path4086"
               style="fill:none;stroke:#ffffff;stroke-width:1;stroke-linecap:butt;stroke-linejoin:miter;stroke-miterlimit:10;stroke-dasharray:none;stroke-opacity:1"
               d="m 0,0 c 0,-0.055 0.045,-0.1 0.1,-0.1 h 13.8 c 0.055,0 0.1,0.045 0.1,0.1 0,0.055 -0.045,0.1 -0.1,0.1 H 0.1 C 0.045,0.1 0,0.055 0,0 0,0 0,0.055 0,0 Z" /></g><g
             transform="translate(29.5,16)"
             id="g4088"><path
               inkscape:connector-curvature="0"
               id="path4090"
               style="fill:none;stroke:#ffffff;stroke-width:1;stroke-linecap:butt;stroke-linejoin:miter;stroke-miterlimit:10;stroke-dasharray:none;stroke-opacity:1"
               d="m 0,0 c 0,-7.456 -6.044,-13.5 -13.5,-13.5 -7.456,0 -13.5,6.044 -13.5,13.5 0,7.456 6.044,13.5 13.5,13.5 C -6.044,13.5 0,7.456 0,0 Z" /></g></g></g></g></g></svg>