<?xml version="1.0" encoding="UTF-8" standalone="no"?>
<!-- Created with Inkscape (http://www.inkscape.org/) -->

<svg
   xmlns:dc="http://purl.org/dc/elements/1.1/"
   xmlns:cc="http://creativecommons.org/ns#"
   xmlns:rdf="http://www.w3.org/1999/02/22-rdf-syntax-ns#"
   xmlns:svg="http://www.w3.org/2000/svg"
   xmlns="http://www.w3.org/2000/svg"
   xmlns:sodipodi="http://sodipodi.sourceforge.net/DTD/sodipodi-0.dtd"
   xmlns:inkscape="http://www.inkscape.org/namespaces/inkscape"
   version="1.1"
   id="svg67"
   xml:space="preserve"
   width="42.666668"
   height="42.666668"
   viewBox="0 0 42.666668 42.666668"
   sodipodi:docname="edit_icon.ai.svg"
   inkscape:version="0.92.3 (2405546, 2018-03-11)"><metadata
     id="metadata73"><rdf:RDF><cc:Work
         rdf:about=""><dc:format>image/svg+xml</dc:format><dc:type
           rdf:resource="http://purl.org/dc/dcmitype/StillImage" /><dc:title></dc:title></cc:Work></rdf:RDF></metadata><defs
     id="defs71"><clipPath
       clipPathUnits="userSpaceOnUse"
       id="clipPath83"><path
         d="M 0,32 H 32 V 0 H 0 Z"
         id="path81"
         inkscape:connector-curvature="0" /></clipPath></defs><sodipodi:namedview
     pagecolor="#ffffff"
     bordercolor="#666666"
     borderopacity="1"
     objecttolerance="10"
     gridtolerance="10"
     guidetolerance="10"
     inkscape:pageopacity="0"
     inkscape:pageshadow="2"
     inkscape:window-width="1280"
     inkscape:window-height="969"
     id="namedview69"
     showgrid="false"
     inkscape:zoom="11.0625"
     inkscape:cx="24.090396"
     inkscape:cy="19.615552"
     inkscape:window-x="0"
     inkscape:window-y="27"
     inkscape:window-maximized="1"
     inkscape:current-layer="g75" /><g
     id="g75"
     inkscape:groupmode="layer"
     inkscape:label="add_icon"
     transform="matrix(1.3333333,0,0,-1.3333333,0,42.666667)"><g
       id="g178"><g
         transform="translate(31.5,16)"
         id="g85"><path
           inkscape:connector-curvature="0"
           id="path87"
           style="fill:#000000;fill-opacity:1;fill-rule:nonzero;stroke:none"
           d="m 0,0 c 0,-8.561 -6.939,-15.5 -15.5,-15.5 -8.561,0 -15.5,6.939 -15.5,15.5 0,8.561 6.939,15.5 15.5,15.5 C -6.939,15.5 0,8.561 0,0" /></g><g
         transform="translate(31.5,16)"
         id="g89"><path
           inkscape:connector-curvature="0"
           id="path91"
           style="fill:none;stroke:#000000;stroke-width:1;stroke-linecap:butt;stroke-linejoin:miter;stroke-miterlimit:10;stroke-dasharray:none;stroke-opacity:1"
           d="m 0,0 c 0,-8.561 -6.939,-15.5 -15.5,-15.5 -8.561,0 -15.5,6.939 -15.5,15.5 0,8.561 6.939,15.5 15.5,15.5 C -6.939,15.5 0,8.561 0,0 Z" /></g><g
         transform="translate(29.5,16)"
         id="g101"><path
           inkscape:connector-curvature="0"
           id="path103"
           style="fill:none;stroke:#ffffff;stroke-width:1;stroke-linecap:butt;stroke-linejoin:miter;stroke-miterlimit:10;stroke-dasharray:none;stroke-opacity:1"
           d="m 0,0 c 0,-7.456 -6.044,-13.5 -13.5,-13.5 -7.456,0 -13.5,6.044 -13.5,13.5 0,7.456 6.044,13.5 13.5,13.5 C -6.044,13.5 0,7.456 0,0 Z" /></g><circle
         inkscape:transform-center-y="0.90395483"
         inkscape:transform-center-x="-0.36158193"
         style="fill:#ffffff;stroke-width:0.75"
         transform="scale(1,-1)"
         r="1.1864408"
         cy="-9.0995998"
         cx="15.8999"
         id="path126" /><circle
         transform="scale(1,-1)"
         inkscape:transform-center-y="0.90395483"
         inkscape:transform-center-x="-0.36158193"
         style="fill:#ffffff;stroke-width:0.75"
         r="1.1864408"
         cy="-22.5996"
         cx="15.8999"
         id="path126-3" /><circle
         transform="scale(1,-1)"
         inkscape:transform-center-y="0.90395483"
         inkscape:transform-center-x="-0.36158193"
         style="fill:#ffffff;stroke-width:0.75"
         r="1.1864408"
         cy="-15.84969"
         cx="15.932204"
         id="path126-3-6" /></g></g></svg>