<?xml version="1.0" encoding="utf-8"?>
<!-- Generator: Adobe Illustrator 22.0.1, SVG Export Plug-In . SVG Version: 6.00 Build 0)  -->
<svg version="1.1" id="Слой_1" xmlns="http://www.w3.org/2000/svg" xmlns:xlink="http://www.w3.org/1999/xlink" x="0px" y="0px"
	 viewBox="0 0 56.7 25.5" style="enable-background:new 0 0 56.7 25.5;" xml:space="preserve">
<style type="text/css">
	.st0{fill:#010202;}
	.st1{fill:none;stroke:#000000;stroke-miterlimit:10;}
	.st2{fill:#4C1010;}
	.st3{fill:#FFFFFF;stroke:#4C1010;stroke-miterlimit:10;}
</style>
<g>
	<path class="st0" d="M55.3,12.8c0,6.2-5.1,11.3-11.3,11.3H12.8C6.5,24.1,1.4,19,1.4,12.8S6.5,1.4,12.8,1.4h31.2
		C50.2,1.4,55.3,6.5,55.3,12.8z"/>
	<path class="st1" d="M55.3,12.8c0,6.2-5.1,11.3-11.3,11.3H12.8C6.5,24.1,1.4,19,1.4,12.8S6.5,1.4,12.8,1.4h31.2
		C50.2,1.4,55.3,6.5,55.3,12.8z"/>
</g>
<circle class="st2" cx="12.8" cy="12.8" r="12.8"/>
<circle class="st3" cx="12.6" cy="12.6" r="11.3"/>
</svg>
