<?xml version="1.0" encoding="utf-8"?>
<!-- Generator: Adobe Illustrator 22.0.1, SVG Export Plug-In . SVG Version: 6.00 Build 0)  -->
<svg version="1.1" id="Слой_1" xmlns="http://www.w3.org/2000/svg" xmlns:xlink="http://www.w3.org/1999/xlink" x="0px" y="0px"
	 viewBox="0 0 56.7 25.5" style="enable-background:new 0 0 56.7 25.5;" xml:space="preserve">
<style type="text/css">
	.st0{fill:#4C1010;}
	.st1{fill:none;stroke:#000000;stroke-miterlimit:10;}
	.st2{fill:#FFFFFF;stroke:#4C1010;stroke-miterlimit:10;}
</style>
<g>
	<path class="st0" d="M54.6,12.8c0,6.2-5.1,11.3-11.3,11.3H12C5.8,24.1,0.7,19,0.7,12.8S5.8,1.4,12,1.4h31.2
		C49.5,1.4,54.6,6.5,54.6,12.8z"/>
	<path class="st1" d="M54.6,12.8c0,6.2-5.1,11.3-11.3,11.3H12C5.8,24.1,0.7,19,0.7,12.8S5.8,1.4,12,1.4h31.2
		C49.5,1.4,54.6,6.5,54.6,12.8z"/>
</g>
<circle class="st0" cx="43.2" cy="12.8" r="12.8"/>
<circle class="st2" cx="43.1" cy="12.6" r="11.3"/>
</svg>
