<?xml version="1.0" encoding="UTF-8" standalone="no"?>
<!-- Created with Inkscape (http://www.inkscape.org/) -->

<svg
   xmlns:dc="http://purl.org/dc/elements/1.1/"
   xmlns:cc="http://creativecommons.org/ns#"
   xmlns:rdf="http://www.w3.org/1999/02/22-rdf-syntax-ns#"
   xmlns:svg="http://www.w3.org/2000/svg"
   xmlns="http://www.w3.org/2000/svg"
   xmlns:sodipodi="http://sodipodi.sourceforge.net/DTD/sodipodi-0.dtd"
   xmlns:inkscape="http://www.inkscape.org/namespaces/inkscape"
   version="1.1"
   id="svg29"
   xml:space="preserve"
   width="42.666668"
   height="42.666668"
   viewBox="0 0 42.666668 42.666668"
   sodipodi:docname="w_clicked_icon.svg"
   inkscape:version="0.92.3 (2405546, 2018-03-11)"><metadata
     id="metadata35"><rdf:RDF><cc:Work
         rdf:about=""><dc:format>image/svg+xml</dc:format><dc:type
           rdf:resource="http://purl.org/dc/dcmitype/StillImage" /><dc:title></dc:title></cc:Work></rdf:RDF></metadata><defs
     id="defs33"><clipPath
       clipPathUnits="userSpaceOnUse"
       id="clipPath45"><path
         d="M 0,32 H 32 V 0 H 0 Z"
         id="path43"
         inkscape:connector-curvature="0" /></clipPath></defs><sodipodi:namedview
     pagecolor="#ffffff"
     bordercolor="#666666"
     borderopacity="1"
     objecttolerance="10"
     gridtolerance="10"
     guidetolerance="10"
     inkscape:pageopacity="0"
     inkscape:pageshadow="2"
     inkscape:window-width="1280"
     inkscape:window-height="969"
     id="namedview31"
     showgrid="false"
     inkscape:zoom="9.2343747"
     inkscape:cx="21.066907"
     inkscape:cy="21.066907"
     inkscape:window-x="0"
     inkscape:window-y="27"
     inkscape:window-maximized="1"
     inkscape:current-layer="g37" /><g
     id="g37"
     inkscape:groupmode="layer"
     inkscape:label="add_clicked_icon"
     transform="matrix(1.3333333,0,0,-1.3333333,0,42.666667)"><g
       id="g270"><g
         transform="translate(31.5,16)"
         id="g47"><path
           inkscape:connector-curvature="0"
           id="path49"
           style="fill:#590606;fill-opacity:1;fill-rule:nonzero;stroke:none"
           d="m 0,0 c 0,-8.561 -6.939,-15.5 -15.5,-15.5 -8.561,0 -15.5,6.939 -15.5,15.5 0,8.561 6.939,15.5 15.5,15.5 C -6.939,15.5 0,8.561 0,0" /></g></g><g
       id="g51"
       transform="translate(31.5,16)"><path
         d="m 0,0 c 0,-8.561 -6.939,-15.5 -15.5,-15.5 -8.561,0 -15.5,6.939 -15.5,15.5 0,8.561 6.939,15.5 15.5,15.5 C -6.939,15.5 0,8.561 0,0 Z"
         style="fill:none;stroke:#590606;stroke-width:1;stroke-linecap:butt;stroke-linejoin:miter;stroke-miterlimit:10;stroke-dasharray:none;stroke-opacity:1"
         id="path53"
         inkscape:connector-curvature="0" /></g><g
       id="g63"
       transform="translate(29.5,16)"><path
         d="m 0,0 c 0,-7.456 -6.044,-13.5 -13.5,-13.5 -7.456,0 -13.5,6.044 -13.5,13.5 0,7.456 6.044,13.5 13.5,13.5 C -6.044,13.5 0,7.456 0,0 Z"
         style="fill:none;stroke:#ffffff;stroke-width:1;stroke-linecap:butt;stroke-linejoin:miter;stroke-miterlimit:10;stroke-dasharray:none;stroke-opacity:1"
         id="path65"
         inkscape:connector-curvature="0" /></g><text
       xml:space="preserve"
       style="font-style:normal;font-weight:normal;font-size:20.47361755px;line-height:1.25;font-family:sans-serif;letter-spacing:0px;word-spacing:0px;fill:#ffffff;fill-opacity:1;stroke:none;stroke-width:0.5118404"
       x="5.6317029"
       y="-8.1064472"
       id="text293"
       transform="scale(1.0081883,-0.99187823)"><tspan
         sodipodi:role="line"
         id="tspan291"
         x="5.6317029"
         y="-8.1064472"
         style="fill:#ffffff;stroke-width:0.5118404">W</tspan></text>
</g></svg>